<svg width="16" height="12" viewBox="0 0 16 12" fill="none" xmlns="http://www.w3.org/2000/svg">
<path d="M8 12C7.80867 12 7.6293 11.9618 7.46188 11.8855C7.29447 11.8092 7.13901 11.6794 6.99552 11.4962L0.394619 3.0687C0.13154 2.73282 0 2.30534 0 1.78626C0 1.26718 0.13154 0.839695 0.394619 0.503817C0.657698 0.167939 0.992526 0 1.3991 0C1.80568 0 2.14051 0.167939 2.40359 0.503817L8 7.64885L13.5964 0.503817C13.8595 0.167939 14.1943 0 14.6009 0C15.0075 0 15.3423 0.167939 15.6054 0.503817C15.8685 0.839695 16 1.26718 16 1.78626C16 2.30534 15.8685 2.73282 15.6054 3.0687L9.00448 11.4962C8.86099 11.6794 8.70553 11.8092 8.53812 11.8855C8.3707 11.9618 8.19133 12 8 12Z" fill="#4A332E"/>
</svg>
