<svg width="27" height="24" viewBox="0 0 27 24" fill="none" xmlns="http://www.w3.org/2000/svg">
<path d="M9.90476 17.7525C7.13651 17.7525 4.79365 16.8933 2.87619 15.175C0.95873 13.4566 0 11.357 0 8.87624C0 6.39545 0.95873 4.29587 2.87619 2.57752C4.79365 0.859175 7.13651 0 9.90476 0C12.673 0 15.0159 0.859175 16.9333 2.57752C18.8508 4.29587 19.8095 6.39545 19.8095 8.87624C19.8095 9.87767 19.6317 10.8222 19.2762 11.7098C18.9206 12.5974 18.4381 13.3826 17.8286 14.0654L26.3619 21.7127C26.6413 21.963 26.781 22.2817 26.781 22.6686C26.781 23.0555 26.6413 23.3741 26.3619 23.6245C26.0825 23.8748 25.727 24 25.2952 24C24.8635 24 24.5079 23.8748 24.2286 23.6245L15.6952 15.9772C14.9333 16.5235 14.0571 16.9559 13.0667 17.2745C12.0762 17.5932 11.0222 17.7525 9.90476 17.7525ZM9.90476 15.0213C11.8095 15.0213 13.4286 14.4239 14.7619 13.229C16.0952 12.0341 16.7619 10.5832 16.7619 8.87624C16.7619 7.16927 16.0952 5.71835 14.7619 4.52347C13.4286 3.32859 11.8095 2.73115 9.90476 2.73115C8 2.73115 6.38095 3.32859 5.04762 4.52347C3.71429 5.71835 3.04762 7.16927 3.04762 8.87624C3.04762 10.5832 3.71429 12.0341 5.04762 13.229C6.38095 14.4239 8 15.0213 9.90476 15.0213Z" fill="#4A332E"/>
</svg>
