<svg width="12" height="8" viewBox="0 0 12 8" fill="none" xmlns="http://www.w3.org/2000/svg">
<path d="M6 8C5.8565 8 5.72197 7.97455 5.59641 7.92366C5.47085 7.87277 5.35426 7.78626 5.24664 7.66412L0.295964 2.0458C0.0986547 1.82188 0 1.5369 0 1.19084C0 0.844784 0.0986547 0.559796 0.295964 0.335878C0.493274 0.111959 0.744395 0 1.04933 0C1.35426 0 1.60538 0.111959 1.80269 0.335878L6 5.09924L10.1973 0.335878C10.3946 0.111959 10.6457 0 10.9507 0C11.2556 0 11.5067 0.111959 11.704 0.335878C11.9013 0.559796 12 0.844784 12 1.19084C12 1.5369 11.9013 1.82188 11.704 2.0458L6.75336 7.66412C6.64574 7.78626 6.52915 7.87277 6.40359 7.92366C6.27803 7.97455 6.1435 8 6 8Z" fill="#97A0A7"/>
</svg>
