<svg width="16" height="16" viewBox="0 0 16 16" fill="none" xmlns="http://www.w3.org/2000/svg">
<path d="M2 16C1.45 16 0.979167 15.8433 0.5875 15.53C0.195833 15.2167 0 14.84 0 14.4V1.6C0 1.16 0.195833 0.783333 0.5875 0.47C0.979167 0.156667 1.45 0 2 0H14C14.55 0 15.0208 0.156667 15.4125 0.47C15.8042 0.783333 16 1.16 16 1.6V14.4C16 14.84 15.8042 15.2167 15.4125 15.53C15.0208 15.8433 14.55 16 14 16H2ZM2 14.4H14V1.6H12V6.5C12 6.66 11.9167 6.77667 11.75 6.85C11.5833 6.92333 11.4167 6.92 11.25 6.84L10.025 6.24C9.85833 6.16 9.6875 6.12 9.5125 6.12C9.3375 6.12 9.16667 6.16 9 6.24L7.775 6.84C7.60833 6.92 7.4375 6.92333 7.2625 6.85C7.0875 6.77667 7 6.66 7 6.5V1.6H2V14.4Z" fill="#97A0A7"/>
</svg>
