<svg width="25" height="24" viewBox="0 0 25 24" fill="none" xmlns="http://www.w3.org/2000/svg">
<path d="M9.18386 17.7525C6.70306 17.7525 4.60349 16.8933 2.88514 15.175C1.16679 13.4566 0.307617 11.357 0.307617 8.87624C0.307617 6.39545 1.16679 4.29587 2.88514 2.57752C4.60349 0.859175 6.70306 0 9.18386 0C11.6647 0 13.7642 0.859175 15.4826 2.57752C17.2009 4.29587 18.0601 6.39545 18.0601 8.87624C18.0601 9.87767 17.9008 10.8222 17.5822 11.7098C17.2635 12.5974 16.8311 13.3826 16.2849 14.0654L23.9321 21.7127C24.1824 21.963 24.3076 22.2817 24.3076 22.6686C24.3076 23.0555 24.1824 23.3741 23.9321 23.6245C23.6817 23.8748 23.3631 24 22.9762 24C22.5893 24 22.2706 23.8748 22.0203 23.6245L14.3731 15.9772C13.6903 16.5235 12.9051 16.9559 12.0174 17.2745C11.1298 17.5932 10.1853 17.7525 9.18386 17.7525ZM9.18386 15.0213C10.8908 15.0213 12.3418 14.4239 13.5366 13.229C14.7315 12.0341 15.329 10.5832 15.329 8.87624C15.329 7.16927 14.7315 5.71835 13.5366 4.52347C12.3418 3.32859 10.8908 2.73115 9.18386 2.73115C7.47689 2.73115 6.02597 3.32859 4.83109 4.52347C3.63621 5.71835 3.03877 7.16927 3.03877 8.87624C3.03877 10.5832 3.63621 12.0341 4.83109 13.229C6.02597 14.4239 7.47689 15.0213 9.18386 15.0213Z" fill="#97A0A7"/>
</svg>
